<?xml version="1.0" encoding="UTF-8" standalone="no"?>
<!-- Created with Inkscape (http://www.inkscape.org/) -->

<svg
   xmlns:dc="http://purl.org/dc/elements/1.1/"
   xmlns:cc="http://creativecommons.org/ns#"
   xmlns:rdf="http://www.w3.org/1999/02/22-rdf-syntax-ns#"
   xmlns:svg="http://www.w3.org/2000/svg"
   xmlns="http://www.w3.org/2000/svg"
   xmlns:sodipodi="http://sodipodi.sourceforge.net/DTD/sodipodi-0.dtd"
   xmlns:inkscape="http://www.inkscape.org/namespaces/inkscape"
   id="svg2"
   version="1.1"
   inkscape:version="0.91 r13725"
   xml:space="preserve"
   width="355.92499"
   height="112.9875"
   viewBox="0 0 355.92499 112.9875"
   sodipodi:docname="gsi-logo.svg"><metadata
     id="metadata8"><rdf:RDF><cc:Work
         rdf:about=""><dc:format>image/svg+xml</dc:format><dc:type
           rdf:resource="http://purl.org/dc/dcmitype/StillImage" /><dc:title></dc:title></cc:Work></rdf:RDF></metadata><defs
     id="defs6"><clipPath
       clipPathUnits="userSpaceOnUse"
       id="clipPath18"><path
         d="m 0,0 2847,0 0,903.949 -2847,0 L 0,0 Z"
         id="path20"
         inkscape:connector-curvature="0" /></clipPath></defs><sodipodi:namedview
     pagecolor="#ffffff"
     bordercolor="#666666"
     borderopacity="1"
     objecttolerance="10"
     gridtolerance="10"
     guidetolerance="10"
     inkscape:pageopacity="0"
     inkscape:pageshadow="2"
     inkscape:window-width="1920"
     inkscape:window-height="1018"
     id="namedview4"
     showgrid="false"
     inkscape:zoom="1.3668314"
     inkscape:cx="285.74334"
     inkscape:cy="85.051222"
     inkscape:window-x="-8"
     inkscape:window-y="-8"
     inkscape:window-maximized="1"
     inkscape:current-layer="g10" /><g
     id="g10"
     inkscape:groupmode="layer"
     inkscape:label="ink_ext_XXXXXX"
     transform="matrix(1.25,0,0,-1.25,0,112.9875)"><g
       id="g12"
       transform="scale(0.1,0.1)"><g
         id="g14"><g
           id="g16"
           clip-path="url(#clipPath18)"><path
             d="m 0.371094,474.813 c 0,14.125 6.582036,22.304 32.421906,22.304 l 799.348,-0.222 c 7.433,-1.489 17.992,-7.211 20.222,-15.391 0,-40.899 0.41,-82.316 0.598,-123.211 l -303.609,-0.223 -13.532,0.035 c 0,23.481 6.508,69.954 -15.984,69.934 L 325.02,427.965 c -6.696,-2.977 -13.536,-8.918 -16.508,-16.356 0,-108.566 0,-229.394 0,-327.9215 8.176,-18.5859 28.402,-14.125 45.508,-14.8711 l 160.613,0.4492 c 5.949,1.4883 13.387,6.9883 14.121,14.4219 L 528.02,200.434 c -8.184,29.742 -40.165,17.101 -64.696,20.074 l -40.898,0 0,59.484 430.535,0 -0.598,-242.4061 C 848.645,27.1797 842.551,16.7695 832.141,10.8203 L 812.809,5.61328 15.6875,5.53906 C 6.76953,7.02734 2.30859,17.5117 0.816406,25.6914 L 0,34.6133 0.371094,474.813"
             style="fill:#231f20;fill-opacity:1;fill-rule:nonzero;stroke:none"
             id="path22"
             inkscape:connector-curvature="0" /><path
             d="m 1098.56,143.176 325.32,-0.446 c 0,-27.437 -5.99,-68.7847 15.76,-68.7847 60.97,-0.7422 125.11,0.3008 185.15,0.3008 l 15.69,19.1094 -0.08,107.8165 c 0,7.066 -2.22,15.984 -17.09,15.984 l -501.99,0.227 c -18.03,0 -23.06,20.597 -23.06,36.586 l 0.3,215.636 c 0,26.77 38.19,24.762 60.68,24.762 l 776.37,-0.222 c 8.92,-2.977 20.89,-4.461 22.38,-15.614 l -0.07,-113.695 -314.54,-0.078 c 0,21.008 5.95,63.207 -13.38,63.207 -65.44,0.094 -135.33,0.094 -201.51,0 l -8.18,-8.176 0.3,-130.871 c 0,-22.121 37.25,-16.063 70.34,-16.137 l 437.97,0 c 20.63,0 29.07,-3.199 29.07,-16.582 0.18,-75.562 0.02,-152.433 -0.07,-220.0974 0,-12.6446 -4.47,-28.92972 -18.59,-31.89847 L 1877.61,4.125 1127.34,4.20313 c -13.38,2.23046 -29.01,13.49217 -29.01,31.15237 -0.18,35.3203 0.31,66.9215 0.23,107.8205"
             style="fill:#231f20;fill-opacity:1;fill-rule:nonzero;stroke:none"
             id="path24"
             inkscape:connector-curvature="0" /><path
             d="m 2158.68,74.7617 c 36.06,2.3594 84.65,-9.2929 101.87,22.3125 l 2.45,19.3318 -0.22,273.637 c -8.8,36.312 -65.81,28.504 -102.61,29.004 l 0,77.328 317.51,0 0,-495.96875 -319,0 c 0,23.79685 0,49.07815 0,74.35545"
             style="fill:#231f20;fill-opacity:1;fill-rule:nonzero;stroke:none"
             id="path26"
             inkscape:connector-curvature="0" /><path
             d="m 2847.42,74.3594 c -36.07,2.3515 -84.65,-9.2969 -101.88,22.3047 L 2743.1,116 l 0.22,273.637 c 8.79,36.308 65.8,28.504 102.61,28.996 l 0,77.332 -317.51,0 0,-495.965 319,0 c 0,23.793 0,49.0781 0,74.3594"
             style="fill:#231f20;fill-opacity:1;fill-rule:nonzero;stroke:none"
             id="path28"
             inkscape:connector-curvature="0" /><path
             d="m 2502.6,569.34 c 92.4,0 167.31,74.902 167.31,167.305 0,92.394 -74.91,167.304 -167.31,167.304 -92.4,0 -167.3,-74.91 -167.3,-167.304 0,-92.403 74.9,-167.305 167.3,-167.305"
             style="fill:#efaa47;fill-opacity:1;fill-rule:nonzero;stroke:none"
             id="path30"
             inkscape:connector-curvature="0" /><path
             d="m 2477.49,0.0351563 51.1211,0 0,496.3400037 -51.1211,0 0,-496.3400037 z"
             style="fill:#efaa47;fill-opacity:1;fill-rule:nonzero;stroke:none"
             id="path32"
             inkscape:connector-curvature="0" /></g></g></g></g></svg>